<svg viewBox="0 0 600 280" width="100%" xmlns="http://www.w3.org/2000/svg" style="font-family: system-ui, sans-serif;">
<text x="300" y="35" text-anchor="middle" fill="#111" font-size="18" font-weight="700">What Taxes Pay For</text>

<circle cx="300" cy="160" r="35" fill="#cc0000"/>
<text x="300" y="167" text-anchor="middle" fill="#fff" font-size="22" font-weight="700">$</text>
<text x="300" y="210" text-anchor="middle" fill="#666" font-size="11">Your Taxes</text>

<g transform="translate(60 80)">
<rect x="0" y="0" width="100" height="70" rx="8" fill="#fff" stroke="#5b8dd9" stroke-width="2"/>
<text x="50" y="30" text-anchor="middle" fill="#5b8dd9" font-size="22">🏫</text>
<text x="50" y="55" text-anchor="middle" fill="#111" font-size="12" font-weight="700">Schools</text>
</g>
<line x1="160" y1="120" x2="265" y2="155" stroke="#ccc" stroke-width="1.5" stroke-dasharray="3 3"/>

<g transform="translate(60 200)">
<rect x="0" y="0" width="100" height="70" rx="8" fill="#fff" stroke="#4a9e6b" stroke-width="2"/>
<text x="50" y="30" text-anchor="middle" fill="#4a9e6b" font-size="22">🛣</text>
<text x="50" y="55" text-anchor="middle" fill="#111" font-size="12" font-weight="700">Roads</text>
</g>
<line x1="160" y1="220" x2="265" y2="170" stroke="#ccc" stroke-width="1.5" stroke-dasharray="3 3"/>

<g transform="translate(440 80)">
<rect x="0" y="0" width="100" height="70" rx="8" fill="#fff" stroke="#b069c8" stroke-width="2"/>
<text x="50" y="30" text-anchor="middle" fill="#b069c8" font-size="22">🏥</text>
<text x="50" y="55" text-anchor="middle" fill="#111" font-size="12" font-weight="700">Hospitals</text>
</g>
<line x1="335" y1="155" x2="440" y2="120" stroke="#ccc" stroke-width="1.5" stroke-dasharray="3 3"/>

<g transform="translate(440 200)">
<rect x="0" y="0" width="100" height="70" rx="8" fill="#fff" stroke="#e89844" stroke-width="2"/>
<text x="50" y="30" text-anchor="middle" fill="#e89844" font-size="22">🚓</text>
<text x="50" y="55" text-anchor="middle" fill="#111" font-size="12" font-weight="700">Public Safety</text>
</g>
<line x1="335" y1="170" x2="440" y2="220" stroke="#ccc" stroke-width="1.5" stroke-dasharray="3 3"/>
</svg>
