<svg width="160" height="160" viewBox="0 0 160 160" role="img" xmlns="http://www.w3.org/2000/svg">
<title>Mobile banking illustration</title>
<desc>A flat illustration of a phone showing online banking</desc>
<rect x="50" y="15" width="60" height="130" rx="12" fill="#2c3e6b"/>
<rect x="55" y="25" width="50" height="110" rx="6" fill="#fff"/>
<rect x="55" y="25" width="50" height="28" rx="6" fill="#4a7bc8"/>
<rect x="55" y="41" width="50" height="12" fill="#4a7bc8"/>
<rect x="62" y="31" width="28" height="5" rx="2" fill="#7aaae8"/>
<rect x="62" y="39" width="18" height="4" rx="2" fill="#7aaae8" opacity="0.6"/>
<rect x="75" y="60" width="22" height="8" rx="3" fill="#4a9e6b"/>
<rect x="62" y="73" width="36" height="4" rx="2" fill="#eee"/>
<rect x="62" y="81" width="28" height="4" rx="2" fill="#eee"/>
<rect x="62" y="93" width="36" height="1.5" fill="#f0f0f0"/>
<rect x="62" y="99" width="36" height="4" rx="2" fill="#eee"/>
<rect x="62" y="107" width="24" height="4" rx="2" fill="#eee"/>
<rect x="62" y="119" width="36" height="1.5" fill="#f0f0f0"/>
<circle cx="80" cy="138" r="4" fill="#4a7bc8"/>
</svg>
