<svg width="160" height="160" viewBox="0 0 160 160" role="img" xmlns="http://www.w3.org/2000/svg">
<title>Checklist illustration</title>
<desc>A flat illustration of a checklist</desc>

<rect x="30" y="20" width="100" height="120" rx="10" fill="#fff5f5"/>
<rect x="30" y="20" width="100" height="120" rx="10" fill="none" stroke="#e5e5e5" stroke-width="1.5"/>

<rect x="30" y="20" width="100" height="28" rx="10" fill="#cc0000"/>
<rect x="30" y="36" width="100" height="12" fill="#cc0000"/>

<rect x="44" y="28" width="50" height="6" rx="3" fill="#ff8080"/>
<rect x="44" y="38" width="30" height="4" rx="2" fill="#ff8080" opacity="0.6"/>

<rect x="44" y="62" width="12" height="12" rx="3" fill="#cc0000"/>
<path d="M46 68 L49 71 L54 65" fill="none" stroke="white" stroke-width="2" stroke-linecap="round" stroke-linejoin="round"/>
<rect x="62" y="64" width="50" height="4" rx="2" fill="#333"/>
<rect x="62" y="71" width="35" height="3" rx="1.5" fill="#aaa"/>

<rect x="44" y="84" width="12" height="12" rx="3" fill="#cc0000"/>
<path d="M46 90 L49 93 L54 87" fill="none" stroke="white" stroke-width="2" stroke-linecap="round" stroke-linejoin="round"/>
<rect x="62" y="86" width="45" height="4" rx="2" fill="#333"/>
<rect x="62" y="93" width="28" height="3" rx="1.5" fill="#aaa"/>

<rect x="44" y="106" width="12" height="12" rx="3" fill="#e5e5e5" stroke="#ccc" stroke-width="1"/>
<rect x="62" y="108" width="40" height="4" rx="2" fill="#333"/>
<rect x="62" y="115" width="32" height="3" rx="1.5" fill="#aaa"/>

</svg>
