<svg width="160" height="160" viewBox="0 0 160 160" role="img" xmlns="http://www.w3.org/2000/svg">
<title>Check illustration</title>
<desc>A flat illustration of a check being signed</desc>
<rect x="20" y="45" width="120" height="75" rx="8" fill="#fff"/>
<rect x="20" y="45" width="120" height="75" rx="8" fill="none" stroke="#e5e5e5" stroke-width="1.5"/>
<rect x="20" y="45" width="120" height="22" rx="8" fill="#5b8dd9"/>
<rect x="20" y="55" width="120" height="12" fill="#5b8dd9"/>
<rect x="30" y="52" width="40" height="5" rx="2" fill="#7aaae8"/>
<rect x="30" y="60" width="25" height="4" rx="2" fill="#7aaae8" opacity="0.6"/>
<rect x="30" y="80" width="60" height="4" rx="2" fill="#ddd"/>
<rect x="30" y="88" width="45" height="4" rx="2" fill="#ddd"/>
<rect x="30" y="100" width="70" height="2" fill="#bbb"/>
<path d="M95 105 Q105 95 110 100 Q115 105 120 98 Q125 92 128 96" fill="none" stroke="#cc0000" stroke-width="2.5" stroke-linecap="round"/>
<circle cx="128" cy="96" r="3" fill="#cc0000"/>
</svg>
