<svg width="160" height="160" viewBox="0 0 160 160" role="img" xmlns="http://www.w3.org/2000/svg">
<title>Ledger illustration</title>
<desc>A flat illustration of a transaction register notebook</desc>
<rect x="35" y="20" width="90" height="120" rx="8" fill="#fff"/>
<rect x="35" y="20" width="90" height="120" rx="8" fill="none" stroke="#e5e5e5" stroke-width="1.5"/>
<rect x="35" y="20" width="18" height="120" rx="8" fill="#cc0000"/>
<rect x="44" y="20" width="9" height="120" fill="#cc0000"/>
<rect x="35" y="55" width="90" height="1.5" fill="#f0f0f0"/>
<rect x="35" y="75" width="90" height="1.5" fill="#f0f0f0"/>
<rect x="35" y="95" width="90" height="1.5" fill="#f0f0f0"/>
<rect x="35" y="115" width="90" height="1.5" fill="#f0f0f0"/>
<rect x="62" y="38" width="50" height="5" rx="2" fill="#ddd"/>
<rect x="62" y="46" width="35" height="4" rx="2" fill="#eee"/>
<rect x="62" y="58" width="50" height="5" rx="2" fill="#ddd"/>
<rect x="62" y="66" width="40" height="4" rx="2" fill="#eee"/>
<rect x="62" y="78" width="50" height="5" rx="2" fill="#ddd"/>
<rect x="62" y="86" width="30" height="4" rx="2" fill="#eee"/>
<rect x="62" y="98" width="50" height="5" rx="2" fill="#ddd"/>
<rect x="62" y="106" width="45" height="4" rx="2" fill="#eee"/>
<rect x="110" y="38" width="8" height="5" rx="2" fill="#4a9e6b"/>
<rect x="110" y="58" width="8" height="5" rx="2" fill="#cc0000"/>
<rect x="110" y="78" width="8" height="5" rx="2" fill="#4a9e6b"/>
<rect x="110" y="98" width="8" height="5" rx="2" fill="#4a9e6b"/>
</svg>
